<svg xmlns="http://www.w3.org/2000/svg" width="512" height="400" viewBox="0 0 512 400" xml:space="preserve"><path d="M0 217.745v-19.954c.125-.516.391-.985.422-1.5.703-9.766 3.266-19.079 6.235-28.33 4.156-13.048 10.907-24.83 18.595-36.002a172.5 172.5 0 0 1 37.252-38.58 321.6 321.6 0 0 1 52.956-33.424 476 476 0 0 1 54.285-23.033 478 478 0 0 1 60.832-17.626c10.719-2.313 21.407-5.125 32.252-6.86a574 574 0 0 1 40.877-4.984 959 959 0 0 1 50.566-3.016c10.25-.344 20.625.766 30.939.829 14.781.109 29.252 2.219 43.627 5.375 14.189 3.141 27.627 8.297 39.564 16.782 14.814 10.485 24.939 24.642 31.252 41.534 5.471 14.72 8.127 30.174 10.252 45.659.813 5.985.719 12.032 1.125 18.095.25 3.282.625 6.594.969 9.876v24.173l-.531 4.672c-1.094 13.048.813 26.205-1.563 39.314-1.875 10.346-2.688 20.939-4.625 31.314a158.7 158.7 0 0 1-13.002 38.94c-7.313 15.626-17.063 30.002-28.939 42.534a192.4 192.4 0 0 1-36.627 29.689c-17.188 11.031-35.752 19.156-54.785 26.251-13.719 5.095-28.002 8.126-42.283 10.938-22.627 4.469-45.408 7.281-68.504 7.219a416 416 0 0 1-51.05-3.125c-18.751-2.406-37.236-6.5-55.269-12.156a260.1 260.1 0 0 1-91.302-49.785 192 192 0 0 1-29.564-31.189 224 224 0 0 1-16.392-25.939 141.1 141.1 0 0 1-15.735-45.814A761 761 0 0 1 0 217.745"/></svg>